<svg width="2400" height="519" viewBox="0 0 2400 519" fill="none" xmlns="http://www.w3.org/2000/svg">
<g clip-path="url(#clip0_2964_285)">
<path fill-rule="evenodd" clip-rule="evenodd" d="M1864.56 -176.001H935.05V267.248H1864.56V-176.001ZM935.045 267.253H0V710.502H935.045V267.253ZM1864.56 267.253H935.047V710.502H1864.56V267.253ZM0.00146484 -176.001H935.047V267.248H0.00146484V-176.001Z" fill="url(#paint0_linear_2964_285)"/>
<path fill-rule="evenodd" clip-rule="evenodd" d="M2397.63 -194.017H2131.89H2131.89H1864.56V258.239H2131.89H2131.89H2397.63V-194.017ZM2131.89 258.245H1864.56V710.501H2131.89V258.245ZM2397.64 258.245H2131.89V710.501H2397.64V258.245Z" fill="url(#paint1_linear_2964_285)"/>
<rect x="1556.56" y="-0.000976562" width="307.996" height="217.966" fill="white" fill-opacity="0.28"/>
<rect x="1312.54" y="-0.000976562" width="244.028" height="144.521" fill="white" fill-opacity="0.15"/>
<rect x="1002.17" y="-0.000976562" width="310.365" height="82.922" fill="white" fill-opacity="0.06"/>
<rect x="2400" y="217.964" width="300.888" height="535.439" transform="rotate(90 2400 217.964)" fill="white" fill-opacity="0.15"/>
<rect x="2210.46" y="-0.000976562" width="187.167" height="516.486" fill="white" fill-opacity="0.37"/>
<path d="M1274.94 398.864C1243.08 398.864 1229.83 378.38 1229.21 358.516H1235.83C1236.87 379.207 1250.73 393.07 1274.94 393.07C1296.67 393.07 1314.46 379.828 1314.46 349.412C1314.46 321.065 1297.08 309.064 1275.97 309.064C1255.7 309.064 1243.7 320.651 1239.35 327.893H1232.11L1247.63 253.612H1314.46V259.406H1252.8L1240.59 317.548V317.962C1249.9 307.616 1263.77 303.271 1277.42 303.271C1305.36 303.271 1321.5 322.927 1321.5 349.412C1321.5 379.414 1303.91 398.864 1274.94 398.864Z" fill="white"/>
<path d="M1128.57 396.583C1128.57 368.65 1144.71 350.648 1169.54 337.613C1193.96 324.784 1212.99 315.267 1212.99 291.472C1212.99 273.057 1200.58 257.125 1178.65 257.125C1154.44 257.125 1138.71 275.747 1138.71 297.472H1132.09C1132.09 274.091 1148.64 251.331 1178.65 251.331C1203.06 251.331 1220.03 266.022 1220.03 291.472C1220.03 317.336 1200.58 327.888 1180.3 339.061C1159.82 350.234 1135.61 361.821 1135.61 390.375V390.789H1220.03V396.583H1128.57Z" fill="white"/>
<path d="M1067.6 398.874C1032.63 398.874 1016.28 365.768 1016.28 325.214C1016.28 284.659 1032.63 251.347 1067.6 251.347C1102.56 251.347 1118.7 284.659 1118.7 325.214C1118.7 365.768 1102.56 398.874 1067.6 398.874ZM1023.32 325.214C1023.32 362.872 1037.18 393.081 1067.6 393.081C1098.01 393.081 1111.67 362.872 1111.67 325.214C1111.67 287.556 1098.01 257.14 1067.6 257.14C1037.18 257.14 1023.32 287.556 1023.32 325.214Z" fill="white"/>
<path d="M912.959 396.583C912.959 368.65 929.098 350.648 953.927 337.613C978.343 324.784 997.379 315.267 997.379 291.472C997.379 273.057 984.964 257.125 963.031 257.125C938.823 257.125 923.098 275.747 923.098 297.472H916.476C916.476 274.091 933.029 251.331 963.031 251.331C987.447 251.331 1004.41 266.022 1004.41 291.472C1004.41 317.336 984.964 327.888 964.687 339.061C944.203 350.234 919.994 361.821 919.994 390.375V390.789H1004.41V396.583H912.959Z" fill="white"/>
<path d="M809.077 399.488C767.074 399.488 739.969 367.21 739.969 322.724C739.969 278.031 767.281 245.753 809.284 245.753C846.321 245.753 869.288 269.341 872.806 298.929H849.011C846.321 284.445 837.217 265.409 808.87 265.409C776.178 265.409 763.763 293.136 763.763 322.517C763.763 352.105 776.178 379.831 808.87 379.831C837.424 379.831 847.562 360.795 849.011 342.794H872.806C869.495 375.693 846.321 399.488 809.077 399.488Z" fill="white"/>
<path d="M703.361 396.593V248.651H726.122V396.593H703.361Z" fill="white"/>
<path d="M561.184 396.593L616.222 248.651H640.844L696.296 396.593H671.467L659.259 361.004H597.393L585.185 396.593H561.184ZM604.221 341.761H652.845L628.637 269.756H628.223L604.221 341.761Z" fill="white"/>
<path d="M512.079 399.488C474.628 399.488 448.351 380.038 446.695 346.725H470.283C471.938 366.589 483.732 380.038 511.458 380.038C535.253 380.038 542.495 369.693 542.495 356.243C542.495 337.414 528.011 334.725 501.113 327.897C477.939 321.689 452.489 314.24 452.489 286.101C452.489 260.444 472.352 245.753 504.217 245.753C537.943 245.753 559.876 262.927 562.152 292.722H538.564C536.081 274.927 525.942 265.203 504.423 265.203C485.801 265.203 476.284 272.031 476.284 284.859C476.284 301.412 491.802 304.929 510.838 309.688C539.391 316.93 566.29 323.758 566.29 355.002C566.29 380.452 549.116 399.488 512.079 399.488Z" fill="white"/>
<path d="M435.416 327.944V329.114C435.102 369.761 402.053 402.614 361.331 402.614C352.672 402.614 344.36 401.129 336.636 398.399V353.225H386.026L361.331 353.224C374.89 353.224 385.896 342.298 386.026 328.771V328.288C385.897 314.876 375.076 304.021 361.677 303.837H360.986C347.506 304.022 336.636 315.006 336.636 328.529C336.636 342.168 347.692 353.224 361.331 353.224L336.636 353.225V353.222H291.459C288.782 345.645 287.301 337.503 287.246 329.023V328.036C287.511 287.347 320.579 254.444 361.331 254.444C369.99 254.444 378.302 255.93 386.026 258.66L386.026 303.834L386.027 303.837H431.203C433.871 311.386 435.351 319.497 435.416 327.944Z" fill="white"/>
<path d="M125.49 396.593V248.651H155.492L198.116 364.935H198.53L241.36 248.651H271.362V396.593H249.016V281.757H248.602L207.841 396.593H189.012L148.25 281.757H147.837V396.593H125.49Z" fill="white"/>
</g>
<defs>
<linearGradient id="paint0_linear_2964_285" x1="129.121" y1="6.99304" x2="2588.31" y2="404.256" gradientUnits="userSpaceOnUse">
<stop stop-color="#FF4079"/>
<stop offset="1" stop-color="#FFB47E"/>
</linearGradient>
<linearGradient id="paint1_linear_2964_285" x1="1864.56" y1="231.273" x2="2369.99" y2="266.626" gradientUnits="userSpaceOnUse">
<stop stop-color="#F49CFC"/>
<stop offset="1" stop-color="#A6DFFF"/>
</linearGradient>
<clipPath id="clip0_2964_285">
<rect width="2400" height="518.852" fill="white"/>
</clipPath>
</defs>
</svg>
